<svg width="200" height="200" viewBox="0 0 200 200" fill="none" xmlns="http://www.w3.org/2000/svg">
<path d="M100 159.09C139.324 159.09 171.205 161.603 171.205 164.703C171.205 167.802 139.326 170.316 100 170.316C60.6758 170.316 28.7953 167.802 28.7953 164.703C28.7953 161.603 60.6738 159.09 100 159.09Z" fill="#B0B0B0" stroke="black" stroke-width="0.390625"/>
<path d="M25.775 26.2586H174.227C179.104 26.2586 183.095 30.2496 183.095 35.1266V126.574H16.909V35.1258C16.909 30.2488 20.9 26.2578 25.7769 26.2578L25.775 26.2586Z" fill="#666666" stroke="black" stroke-width="0.390625"/>
<path d="M22.9277 120.554H177.072V35.1277C177.072 33.5742 175.78 32.2805 174.227 32.2805H25.775C24.2215 32.2805 22.9297 33.5723 22.9297 35.1277V120.554H22.9277Z" fill="white" stroke="black" stroke-width="0.390625"/>
<path d="M183.186 123.253V132.951C183.186 137.83 178.787 141.819 173.411 141.819H26.775C21.3984 141.819 17 137.83 17 132.951V123.253H183.186Z" fill="#B4C4AF" stroke="black" stroke-width="0.390625"/>
<path d="M100 132.416C101.687 132.416 103.053 133.782 103.053 135.469C103.053 137.156 101.687 138.522 100 138.522C98.3129 138.522 96.9473 137.156 96.9473 135.469C96.9473 133.782 98.3129 132.416 100 132.416Z" fill="#B6B6B8" stroke="black" stroke-width="0.390625"/>
<path d="M119.166 159.09L133.266 163.607H66.734L78.1094 159.09V145.14H119.166V159.09Z" fill="#C2C2C4" stroke="black" stroke-width="0.390625"/>
<path d="M119.166 159.09L78.1094 145.139H119.166V159.09Z" fill="#B0B0B0" stroke="black" stroke-width="0.390625"/>
<path d="M78.1094 159.09H119.166L133.266 163.607V165.554H100H66.732V163.607L78.1074 159.09H78.1094Z" fill="#ECF0F1" stroke="black" stroke-width="0.390625"/>
</svg>
