<svg width="200" height="200" viewBox="0 0 200 200" fill="none" xmlns="http://www.w3.org/2000/svg">
<path d="M100 159.09C139.324 159.09 171.205 161.603 171.205 164.703C171.205 167.802 139.326 170.316 100 170.316C60.6758 170.316 28.7953 167.802 28.7953 164.703C28.7953 161.603 60.6738 159.09 100 159.09Z" fill="#B0B0B0" stroke="black" stroke-width="0.390625"/>
<path d="M25.775 26.2586H174.227C179.104 26.2586 183.095 30.2496 183.095 35.1266V126.574H16.909V35.1258C16.909 30.2488 20.9 26.2578 25.7769 26.2578L25.775 26.2586Z" fill="#666666" stroke="black" stroke-width="0.390625"/>
<path d="M22.9277 120.554H177.072V35.1277C177.072 33.5742 175.78 32.2805 174.227 32.2805H25.775C24.2215 32.2805 22.9297 33.5723 22.9297 35.1277V120.554H22.9277Z" fill="#DCE3DB" stroke="black" stroke-width="0.390625"/>
<path d="M183.093 126.574V136.272C183.093 141.151 178.694 145.14 173.318 145.14H26.6824C21.3059 145.14 16.9074 141.151 16.9074 136.272V126.574H183.093Z" fill="white" stroke="black" stroke-width="0.390625"/>
<path d="M58.4223 42.3211H141.578H153.957C155.456 42.3211 156.684 43.55 156.684 45.0488V61.2777V120.554H43.3188V120.552V61.2781V45.0492C43.3188 43.5496 44.5457 42.3215 46.0465 42.3215H58.425L58.4223 42.3211Z" fill="white" stroke="black" stroke-width="0.390625"/>
<path d="M46.0434 42.3211H153.955C155.454 42.3211 156.682 43.548 156.682 45.0488V50.5031H43.3152V45.0488C43.3152 43.55 44.5422 42.3211 46.0434 42.3211Z" fill="#828282" stroke="black" stroke-width="0.390625"/>
<path d="M93.7863 45.1465H148.548C148.952 45.1465 149.28 45.4746 149.28 45.8789V47.2375C149.28 47.6418 148.952 47.9699 148.548 47.9699H93.7863C93.382 47.9699 93.0539 47.6418 93.0539 47.2375V45.8789C93.0539 45.4754 93.382 45.1465 93.7863 45.1465Z" fill="white" stroke="black" stroke-width="0.390625"/>
<path d="M48.7566 44.6613C49.6227 44.6613 50.3262 45.3629 50.3262 46.2309C50.3262 47.0988 49.6227 47.8004 48.7566 47.8004C47.8887 47.8004 47.1852 47.0988 47.1852 46.2309C47.1855 45.3633 47.8891 44.6613 48.7566 44.6613Z" fill="#21D0C3" stroke="black" stroke-width="0.390625"/>
<path d="M54.9543 44.6613C55.8223 44.6613 56.5238 45.3629 56.5238 46.2309C56.5238 47.0988 55.8223 47.8004 54.9543 47.8004C54.0863 47.8004 53.3848 47.0988 53.3848 46.2309C53.3848 45.3633 54.0887 44.6613 54.9543 44.6613Z" fill="#FAD24D" stroke="black" stroke-width="0.390625"/>
<path d="M61.1535 44.6613C62.0195 44.6613 62.723 45.3629 62.723 46.2309C62.723 47.0988 62.0195 47.8004 61.1535 47.8004C60.2855 47.8004 59.582 47.0988 59.582 46.2309C59.582 45.3633 60.2859 44.6613 61.1535 44.6613Z" fill="#FF5B62" stroke="black" stroke-width="0.390625"/>
<path d="M100 132.416C101.687 132.416 103.053 133.782 103.053 135.469C103.053 137.156 101.687 138.522 100 138.522C98.3129 138.522 96.9473 137.156 96.9473 135.469C96.9473 133.782 98.3129 132.416 100 132.416Z" fill="#B6B6B8" stroke="black" stroke-width="0.390625"/>
<path d="M119.166 159.09L133.266 163.607H66.734L78.1094 159.09V145.14H119.166V159.09Z" fill="#C2C2C4" stroke="black" stroke-width="0.390625"/>
<path d="M119.166 159.09L78.1094 145.139H119.166V159.09Z" fill="#B0B0B0" stroke="black" stroke-width="0.390625"/>
<path d="M78.1094 159.09H119.166L133.266 163.607V165.554H100H66.732V163.607L78.1074 159.09H78.1094Z" fill="#ECF0F1" stroke="black" stroke-width="0.390625"/>
</svg>
