<svg width="168" height="142" viewBox="0 0 168 142" fill="none" xmlns="http://www.w3.org/2000/svg">
<path d="M84 130.09C123.324 130.09 155.205 132.603 155.205 135.703C155.205 138.802 123.326 141.316 84 141.316C44.6758 141.316 12.7953 138.802 12.7953 135.703C12.7953 132.603 44.6738 130.09 84 130.09Z" fill="#B0B0B0" stroke="black" stroke-width="0.390625"/>
<path d="M9.775 0.258593H158.227C163.104 0.258593 167.095 4.24961 167.095 9.12656V100.574H0.908981V9.12578C0.908981 4.24883 4.9 0.257812 9.77695 0.257812L9.775 0.258593Z" fill="#666666" stroke="black" stroke-width="0.390625"/>
<path d="M6.92773 94.5535H161.072V9.12774C161.072 7.57422 159.78 6.28047 158.227 6.28047H9.775C8.22148 6.28047 6.92969 7.57227 6.92969 9.12774V94.5535H6.92773Z" fill="white" stroke="black" stroke-width="0.390625"/>
<path d="M167.186 97.2531V106.951C167.186 111.83 162.787 115.819 157.411 115.819H10.775C5.39844 115.819 1 111.83 1 106.951V97.2531H167.186Z" fill="#B4C4AF" stroke="black" stroke-width="0.390625"/>
<path d="M84 106.416C85.6871 106.416 87.0527 107.782 87.0527 109.469C87.0527 111.156 85.6871 112.522 84 112.522C82.3129 112.522 80.9473 111.156 80.9473 109.469C80.9473 107.782 82.3129 106.416 84 106.416Z" fill="#B6B6B8" stroke="black" stroke-width="0.390625"/>
<path d="M103.166 130.09L117.266 134.607H50.734L62.1094 130.09V116.14H103.166V130.09Z" fill="#C2C2C4" stroke="black" stroke-width="0.390625"/>
<path d="M103.166 130.09L62.1094 116.139H103.166V130.09Z" fill="#B0B0B0" stroke="black" stroke-width="0.390625"/>
<path d="M62.1094 130.09H103.166L117.266 134.607V136.554H84H50.732V134.607L62.1074 130.09H62.1094Z" fill="#ECF0F1" stroke="black" stroke-width="0.390625"/>
</svg>
